<?xml version="1.0" standalone="no"?>
<!DOCTYPE svg PUBLIC "-//W3C//DTD SVG 20010904//EN"
 "http://www.w3.org/TR/2001/REC-SVG-20010904/DTD/svg10.dtd">
<svg version="1.0" xmlns="http://www.w3.org/2000/svg"
 width="499.000000pt" height="499.000000pt" viewBox="0 0 499.000000 499.000000"
 preserveAspectRatio="xMidYMid meet">

<g transform="translate(0.000000,499.000000) scale(0.100000,-0.100000)"
fill="#000000" stroke="none">
<path d="M2560 4948 c-36 -4 -120 -10 -186 -12 -67 -3 -162 -11 -210 -19 -49
-8 -117 -15 -151 -16 -33 -1 -87 -10 -119 -21 -31 -11 -64 -20 -73 -20 -26 0
-105 -43 -137 -74 -16 -15 -51 -38 -79 -51 -27 -13 -63 -37 -80 -55 -16 -18
-53 -47 -81 -66 -52 -33 -84 -63 -165 -150 -107 -116 -178 -204 -199 -245 -12
-24 -32 -57 -44 -74 -41 -55 -118 -206 -120 -235 -1 -15 -7 -34 -12 -42 -12
-14 -42 -98 -51 -138 -3 -14 -21 -58 -40 -99 -19 -41 -39 -101 -45 -135 -8
-50 -40 -129 -99 -248 -5 -10 -9 -23 -9 -30 0 -7 -14 -40 -30 -73 -33 -67 -36
-81 -17 -88 7 -3 5 -6 -5 -6 -19 -1 -22 -18 -17 -101 1 -25 1 -61 0 -80 -2
-19 -3 -93 -2 -165 1 -108 6 -152 32 -260 43 -178 63 -242 99 -317 17 -34 49
-108 70 -163 54 -142 107 -234 125 -217 4 4 6 0 4 -8 -5 -23 53 -170 106 -270
13 -25 45 -88 71 -140 45 -91 127 -195 146 -184 4 3 8 1 8 -4 0 -5 13 -23 29
-40 37 -38 60 -83 96 -187 28 -80 48 -118 90 -165 13 -14 34 -47 49 -73 43
-78 76 -115 157 -172 41 -29 89 -66 105 -81 65 -64 152 -131 199 -154 27 -14
88 -62 135 -108 47 -46 104 -95 128 -109 39 -23 50 -25 131 -21 61 3 97 9 115
21 38 25 66 88 76 170 5 40 14 88 20 107 7 19 13 44 15 55 4 25 20 97 42 189
12 50 26 80 52 110 20 23 49 59 66 80 20 25 35 36 47 33 10 -3 51 -1 90 5 40
5 80 11 88 12 9 1 20 5 25 8 20 12 140 30 204 29 63 0 161 25 266 68 48 20
182 128 281 227 41 40 91 84 112 98 22 13 47 41 57 62 9 20 36 65 59 100 23
34 55 93 71 130 15 38 41 88 55 110 15 23 33 59 40 79 7 21 32 84 55 139 25
60 49 140 59 196 20 111 30 155 62 270 13 47 25 105 28 130 3 25 14 97 25 160
23 135 38 266 46 405 3 55 8 127 11 160 4 42 0 85 -14 145 -11 47 -25 121 -32
165 -15 111 -30 176 -45 201 -7 11 -22 49 -33 85 -87 283 -206 505 -341 639
-31 30 -90 77 -131 105 -41 27 -93 66 -115 87 -41 40 -121 89 -165 103 -14 4
-70 28 -125 53 -162 72 -323 117 -530 148 -22 3 -59 10 -83 15 -106 23 -171
27 -262 17z m205 -88 c337 -56 454 -83 551 -123 32 -14 93 -39 134 -57 41 -17
89 -37 107 -45 17 -8 35 -15 40 -15 5 0 34 -22 64 -48 29 -27 81 -66 114 -87
133 -87 182 -133 258 -242 21 -29 37 -54 37 -56 0 -2 -19 14 -42 36 -42 40
-183 137 -199 137 -21 0 -118 42 -136 60 -12 11 -52 28 -90 39 -37 10 -97 32
-133 48 -36 16 -85 35 -110 43 -25 7 -63 25 -85 40 -62 41 -124 68 -195 86
-36 9 -69 20 -75 24 -23 17 -110 31 -270 45 -208 18 -238 22 -306 40 -39 10
-91 13 -189 10 -200 -7 -339 -27 -487 -73 -25 -8 -31 -8 -26 3 13 36 209 95
318 95 33 1 96 7 140 15 44 8 123 15 175 16 52 0 118 4 145 9 68 10 199 10
260 0z m-340 -130 c31 -12 235 -38 345 -45 52 -3 111 -9 130 -14 92 -22 257
-84 308 -116 32 -19 93 -49 137 -66 44 -16 84 -34 90 -39 6 -5 52 -23 101 -39
50 -16 107 -41 128 -54 20 -14 58 -33 84 -42 76 -27 173 -88 223 -142 15 -15
46 -49 71 -75 24 -25 50 -59 58 -75 8 -15 24 -42 36 -58 30 -42 97 -182 92
-195 -2 -6 -26 25 -55 67 -95 144 -220 258 -358 326 -157 78 -178 85 -303 108
-29 5 -72 16 -95 25 -45 16 -58 20 -182 54 -44 12 -100 31 -125 42 -112 50
-264 72 -410 60 -122 -11 -345 -4 -426 13 -50 11 -292 5 -432 -9 -253 -26
-372 -65 -502 -162 -58 -44 -156 -161 -181 -216 -5 -13 -15 -32 -22 -43 -7
-11 -25 -42 -41 -70 -31 -53 -103 -153 -123 -170 -12 -10 -43 -61 -65 -105 -7
-14 -26 -43 -41 -65 -22 -30 -27 -34 -21 -15 4 14 8 34 8 45 1 11 6 23 13 28
7 4 16 22 22 40 5 17 16 49 25 70 10 22 12 37 6 37 -6 0 1 12 15 27 14 15 25
32 25 38 0 6 15 33 34 61 19 28 50 84 70 125 37 77 180 255 278 347 110 103
305 224 384 238 16 3 65 15 109 26 142 37 528 62 590 38z m-125 -355 c50 -4
117 -11 148 -15 31 -4 100 -5 152 -2 173 10 314 7 361 -7 24 -8 96 -31 159
-52 63 -21 129 -40 145 -43 29 -4 76 -19 120 -37 11 -5 58 -15 105 -24 122
-22 178 -40 280 -89 146 -70 277 -190 379 -346 132 -202 155 -257 208 -490 26
-112 15 -336 -32 -650 -14 -96 -28 -193 -31 -215 -5 -33 -20 -75 -27 -75 -1 0
0 26 3 57 10 120 3 300 -14 393 -29 161 -32 174 -50 215 -10 22 -22 49 -27 60
-5 11 -16 43 -25 70 -9 28 -38 88 -64 135 -27 47 -60 112 -75 145 -28 65 -61
130 -80 158 -15 21 -244 267 -295 315 -89 85 -207 147 -335 176 -173 40 -216
47 -322 56 -63 6 -145 17 -181 25 -37 9 -88 20 -114 26 -27 6 -74 24 -105 40
-94 48 -147 60 -268 58 -294 -3 -430 -13 -520 -36 -94 -25 -348 -134 -361
-155 -3 -4 -12 -8 -20 -8 -19 0 -107 -63 -169 -121 -50 -47 -72 -67 -117 -103
-12 -10 -49 -41 -80 -68 -69 -59 -77 -51 -12 12 45 45 111 138 198 282 27 44
72 100 106 130 53 49 176 124 218 133 242 54 475 70 742 50z m249 -225 c65
-33 115 -49 225 -71 77 -16 168 -31 201 -34 72 -6 246 -35 258 -42 5 -3 23 -7
40 -10 61 -9 186 -61 215 -89 7 -8 17 -14 22 -14 12 0 133 -121 253 -255 106
-117 120 -140 181 -285 15 -36 40 -85 55 -110 34 -55 91 -177 91 -194 0 -6 4
-16 9 -21 10 -10 58 -183 67 -245 3 -19 11 -66 18 -105 6 -38 11 -86 10 -105
-2 -62 -14 -204 -18 -225 -6 -35 -19 -139 -20 -170 -1 -16 -9 -70 -18 -120
-10 -49 -22 -123 -27 -164 -5 -40 -15 -79 -21 -85 -10 -8 -11 21 -6 129 10
207 7 300 -11 395 -9 47 -17 96 -17 110 -3 42 -40 263 -57 342 -6 25 -12 57
-14 70 -7 54 -89 252 -117 284 -10 11 -18 24 -18 29 0 22 -100 163 -165 234
-62 67 -272 220 -355 258 -41 19 -138 66 -216 104 -77 38 -147 69 -155 69 -9
0 -55 15 -103 34 -85 34 -155 53 -226 62 -19 3 -48 8 -65 13 -47 12 -225 13
-276 2 -25 -6 -114 -13 -198 -15 -83 -3 -156 -8 -161 -11 -6 -4 -51 -10 -101
-16 -50 -5 -105 -12 -122 -15 -156 -28 -173 -32 -223 -47 -51 -15 -193 -92
-244 -132 -211 -164 -296 -250 -365 -369 -15 -28 -44 -68 -65 -90 -37 -42
-120 -176 -120 -195 0 -5 -5 -13 -12 -17 -8 -5 -9 -2 -4 12 9 22 10 25 21 79
11 56 42 126 113 260 19 37 128 190 168 235 61 70 191 185 245 216 9 5 44 33
77 63 68 60 67 59 217 134 261 130 304 141 575 153 74 3 137 8 140 11 3 3 57
3 120 0 111 -5 118 -6 199 -47z m26 -296 c50 -8 113 -21 140 -29 104 -28 304
-104 400 -154 55 -28 105 -51 111 -51 16 0 112 -47 160 -78 52 -34 196 -145
247 -191 43 -39 176 -236 199 -296 9 -22 27 -65 41 -95 13 -30 29 -71 35 -90
13 -38 87 -462 99 -555 2 -16 5 -37 8 -45 5 -16 6 -147 4 -381 -1 -155 -9
-198 -68 -359 -23 -63 -44 -121 -46 -128 -3 -7 -9 -11 -15 -7 -6 4 -6 15 0 30
5 14 12 46 16 72 3 26 11 59 16 73 13 34 11 425 -2 486 -17 74 -57 191 -92
264 -36 76 -235 476 -252 505 -18 32 -50 80 -57 85 -3 3 -21 37 -39 75 -35 72
-95 164 -117 178 -6 4 -18 13 -25 20 -29 27 -165 133 -210 163 -27 18 -79 43
-116 55 -37 11 -83 27 -102 34 -20 7 -62 16 -95 20 -33 4 -73 8 -90 10 -16 2
-77 13 -135 23 -58 11 -166 28 -240 37 -74 9 -173 26 -220 37 -47 11 -137 24
-200 29 -63 4 -140 13 -170 19 -54 11 -244 15 -259 6 -4 -3 -18 -7 -32 -9
-127 -24 -195 -44 -273 -81 -140 -67 -172 -69 -89 -6 25 19 73 58 107 86 34
28 79 60 101 71 22 11 72 36 111 56 89 45 186 66 399 87 61 6 121 12 135 15
14 3 86 7 160 10 130 4 178 9 187 19 10 10 183 3 268 -10z m-824 -300 c46 -9
131 -20 189 -24 58 -4 137 -16 175 -28 39 -11 133 -28 210 -37 77 -9 183 -25
236 -36 53 -10 143 -25 200 -33 143 -20 280 -70 360 -132 136 -103 211 -170
230 -204 11 -19 23 -42 29 -50 27 -43 154 -286 227 -435 46 -93 88 -177 93
-185 11 -18 49 -98 60 -125 8 -20 24 -62 55 -145 10 -25 19 -55 20 -67 2 -11
5 -29 9 -40 3 -10 8 -83 11 -162 3 -80 8 -148 10 -151 2 -3 0 -12 -4 -19 -5
-7 -17 23 -31 76 -21 83 -42 153 -60 198 -4 11 -13 40 -20 65 -6 25 -27 86
-45 135 -18 50 -45 128 -60 175 -44 137 -89 211 -202 333 -27 30 -72 82 -98
116 -26 33 -51 61 -54 61 -3 0 -19 12 -36 28 -55 50 -100 79 -132 86 -18 4
-35 12 -38 17 -15 23 -164 127 -200 139 -22 7 -56 21 -75 30 -19 10 -70 25
-114 34 -81 17 -163 42 -181 55 -60 46 -331 84 -610 86 -110 1 -238 -2 -285
-6 -95 -8 -304 -72 -379 -116 -70 -40 -403 -374 -430 -431 -12 -26 -29 -60
-38 -76 -13 -24 -13 -30 -2 -37 8 -5 9 -9 3 -9 -14 0 -50 -82 -58 -132 -5 -30
-3 -38 9 -38 10 0 15 11 15 34 0 19 4 37 9 41 5 3 12 19 16 35 6 26 52 123 92
195 7 12 50 55 95 96 45 41 123 115 172 165 122 122 139 131 366 200 80 24
100 26 330 29 135 1 261 -1 280 -5 19 -5 58 -11 85 -15 158 -18 194 -24 230
-40 22 -10 42 -19 45 -20 3 -1 19 -7 35 -14 65 -28 142 -52 180 -57 22 -3 73
-21 114 -40 40 -19 78 -34 85 -34 7 0 21 -7 32 -16 22 -18 27 -19 -101 17 -38
10 -90 21 -115 24 -25 3 -58 10 -75 15 -28 8 -70 13 -228 25 -32 3 -97 9 -144
15 -171 21 -434 -3 -581 -54 -37 -13 -87 -29 -112 -35 -50 -14 -183 -76 -203
-94 -6 -7 -32 -28 -57 -47 -110 -84 -188 -186 -240 -315 -30 -71 -97 -292
-105 -343 -3 -20 -10 -65 -15 -99 -6 -34 -15 -74 -20 -87 -12 -32 -13 -83 -5
-168 3 -38 4 -68 1 -68 -13 0 -36 74 -27 83 7 7 6 17 0 29 -6 11 -23 59 -39
106 -26 80 -44 125 -87 221 -9 19 -18 74 -21 123 -2 48 -8 85 -13 83 -36 -23
-69 307 -40 412 13 48 97 214 143 282 36 54 117 149 181 212 32 32 64 53 100
65 28 9 91 36 139 60 48 24 100 44 115 44 16 1 62 9 103 19 95 24 185 25 291
5z m459 -519 c47 -3 146 -10 220 -15 160 -10 324 -39 435 -75 102 -34 252
-106 287 -139 15 -14 30 -26 33 -26 18 0 131 -93 223 -183 64 -62 81 -88 129
-187 68 -141 93 -217 127 -383 51 -250 46 -414 -19 -551 -18 -39 -41 -96 -50
-126 -22 -69 -39 -103 -68 -133 -33 -36 -67 -81 -67 -89 0 -5 -8 -16 -17 -26
-10 -11 -34 -39 -54 -63 -61 -75 -252 -172 -291 -148 -7 5 -8 9 -3 9 6 0 33
19 60 41 28 23 73 54 100 70 59 33 74 46 135 119 61 71 94 135 126 238 35 115
34 111 38 237 8 224 -31 405 -137 636 -31 67 -138 206 -202 262 -39 34 -100
74 -125 82 -14 4 -74 30 -134 57 -60 27 -132 54 -160 59 -28 5 -89 16 -136 24
-47 7 -130 23 -185 35 -159 33 -388 19 -560 -35 -44 -13 -138 -40 -210 -59
-157 -42 -200 -57 -274 -98 -110 -61 -137 -82 -246 -192 -106 -106 -134 -146
-199 -283 -13 -27 -31 -31 -21 -5 3 9 18 71 32 137 14 66 34 138 45 159 11 22
31 69 44 105 46 123 86 190 160 263 39 38 87 79 105 90 19 11 43 28 54 37 31
28 134 65 355 130 19 6 51 13 70 17 38 7 269 21 285 17 6 -1 48 -5 95 -8z
m230 -341 c36 -8 115 -23 175 -34 61 -10 126 -22 145 -25 65 -13 135 -41 325
-131 90 -43 233 -206 275 -314 11 -30 27 -69 35 -87 8 -17 15 -37 15 -45 0 -8
4 -18 8 -24 9 -9 31 -95 52 -195 15 -79 12 -313 -7 -380 -8 -30 -19 -71 -24
-92 -26 -105 -117 -232 -208 -287 -32 -19 -82 -56 -112 -81 -48 -41 -229 -140
-229 -125 0 5 126 103 150 116 37 19 155 145 178 188 42 82 57 169 57 332 0
251 -10 347 -47 470 -31 102 -95 199 -213 316 -73 73 -108 100 -183 139 -51
26 -99 53 -105 59 -59 56 -173 125 -216 129 -15 2 -33 7 -41 12 -8 5 -57 9
-110 8 -92 -1 -171 -16 -295 -59 -26 -8 -55 -17 -64 -19 -37 -7 -169 -45 -206
-59 -59 -21 -185 -86 -185 -94 0 -4 -10 -8 -23 -8 -36 -3 -149 -62 -192 -102
-22 -20 -51 -53 -65 -72 -13 -19 -42 -53 -65 -75 -50 -49 -126 -155 -119 -166
3 -5 1 -9 -4 -9 -5 0 -26 -36 -47 -81 -29 -61 -39 -98 -43 -150 -6 -83 13
-180 42 -217 11 -14 15 -23 8 -18 -17 10 -16 6 21 -76 19 -40 46 -104 62 -143
16 -38 36 -79 45 -90 10 -11 21 -27 25 -35 8 -13 7 -13 -8 -1 -14 11 -17 11
-17 0 0 -8 -9 4 -21 26 -12 22 -27 47 -34 55 -7 8 -10 20 -8 27 2 6 -1 14 -6
18 -6 3 -11 13 -11 22 0 8 -20 55 -45 104 -24 49 -62 144 -84 210 -62 183 -55
260 40 454 59 122 130 215 239 312 91 81 230 153 365 188 55 15 114 30 130 35
205 55 281 73 349 79 130 13 226 11 296 -5z m90 -126 c30 -14 87 -49 125 -78
39 -28 111 -76 160 -105 108 -65 182 -137 268 -267 72 -106 92 -167 108 -318
10 -94 13 -367 5 -390 -3 -8 -7 -34 -10 -56 -12 -110 -39 -157 -146 -263 -59
-58 -76 -55 -36 7 14 22 35 69 47 104 20 60 21 75 15 283 -4 136 -11 239 -20
270 -33 123 -156 327 -249 412 -52 48 -87 67 -177 98 -36 13 -105 37 -155 54
-49 17 -106 34 -125 37 -70 11 -313 1 -380 -16 -113 -29 -184 -56 -176 -68 2
-4 -7 -8 -20 -8 -71 -5 -388 -296 -443 -408 -33 -66 -38 -86 -20 -86 8 0 7 -5
-1 -15 -15 -18 -9 -331 8 -425 6 -30 13 -86 16 -123 l5 -68 -37 48 c-65 84
-81 110 -88 139 -4 16 -13 40 -20 54 -7 14 -15 33 -18 43 -3 10 -10 15 -16 12
-5 -3 -7 0 -5 8 3 7 -1 27 -10 43 -8 16 -15 35 -15 42 0 7 -4 20 -8 30 -5 9
-15 31 -23 47 -11 23 -13 51 -7 118 6 78 12 100 53 183 42 84 128 207 158 226
7 4 9 8 5 8 -4 0 5 13 20 28 15 16 48 53 74 83 37 43 63 61 125 88 43 19 120
54 171 78 51 24 99 43 107 43 8 0 16 4 19 9 3 5 16 11 28 13 13 3 77 20 143
38 66 18 158 43 205 56 119 33 261 30 340 -8z m-75 -288 c50 -18 113 -40 141
-50 150 -52 229 -132 323 -324 70 -141 78 -189 80 -432 1 -227 -5 -259 -71
-358 -37 -55 -65 -74 -52 -35 7 24 7 372 0 440 -4 39 -53 166 -82 216 -11 17
-33 55 -50 85 -54 91 -114 143 -260 226 -177 101 -195 107 -319 107 -98 -1
-121 -4 -209 -34 -119 -40 -148 -56 -241 -129 -5 -5 -44 -31 -85 -59 -122 -82
-172 -139 -266 -298 l-29 -50 -3 109 c-2 100 -1 111 22 150 14 22 44 61 66 86
23 25 46 57 52 72 5 16 14 26 18 23 5 -3 30 15 57 39 179 162 307 226 491 247
53 6 113 14 132 18 52 10 184 -12 285 -49z m-196 -171 c69 -14 290 -143 360
-210 72 -69 96 -107 163 -259 6 -14 18 -38 27 -55 13 -25 16 -64 15 -245 -1
-241 -6 -264 -73 -395 -34 -68 -58 -103 -130 -191 -22 -27 -41 -75 -46 -120
-14 -101 -33 -175 -55 -207 -22 -30 -66 -64 -171 -130 l-46 -28 -76 15 c-42 9
-101 25 -131 36 -63 24 -176 89 -176 102 0 7 41 13 64 9 6 -1 65 -2 132 -2
143 1 164 8 250 83 132 113 236 271 263 396 14 65 6 197 -16 282 -12 41 -25
118 -31 170 -17 147 -26 163 -154 292 -125 127 -154 148 -257 183 -78 28 -202
34 -261 14 -42 -15 -244 -151 -292 -196 -20 -20 -48 -63 -63 -97 -15 -33 -47
-105 -72 -159 l-46 -99 2 -111 c0 -61 3 -127 6 -146 4 -31 4 -33 -5 -11 -16
42 -70 388 -70 452 0 64 9 88 79 206 68 113 101 143 337 304 147 99 337 146
473 117z m-94 -321 c78 -26 101 -43 226 -169 118 -120 119 -124 143 -289 8
-58 21 -127 28 -155 7 -27 13 -102 13 -165 0 -104 -3 -120 -27 -173 -33 -70
-132 -209 -185 -258 -69 -65 -106 -87 -155 -93 -56 -7 -62 4 -15 26 80 39 191
177 270 338 28 58 32 74 31 146 -1 97 -34 192 -100 292 -24 35 -44 67 -44 69
0 2 -14 25 -31 51 -41 60 -97 120 -129 137 -30 15 -112 29 -160 27 -53 -3
-251 -70 -287 -98 -56 -42 -146 -174 -214 -311 -12 -24 -25 -43 -30 -43 -5 0
-9 40 -9 88 0 79 3 95 33 157 18 39 44 101 57 138 30 84 65 121 215 222 95 65
118 76 170 83 74 10 123 5 200 -20z m1636 -153 c17 -85 22 -238 10 -296 -11
-49 -20 -62 -99 -139 -146 -142 -202 -190 -263 -221 -65 -32 -95 -38 -64 -11
12 9 47 53 79 97 33 44 75 97 93 118 31 35 93 154 93 178 0 6 21 55 46 109 43
96 51 127 65 285 1 17 30 -67 40 -120z m-1679 -112 c41 -11 69 -27 95 -54 45
-46 167 -243 200 -322 26 -64 39 -157 29 -209 -15 -79 -246 -407 -246 -349 0
4 13 25 30 47 16 21 30 43 30 47 0 5 7 23 15 40 28 61 65 208 65 260 0 62 -13
116 -42 174 -26 54 -42 67 -162 138 -92 54 -104 58 -159 57 -75 -1 -122 -25
-205 -105 -42 -41 -74 -84 -95 -127 -29 -61 -31 -72 -32 -175 0 -60 4 -134 9
-164 10 -65 4 -63 -60 22 -52 67 -84 140 -84 187 0 30 86 215 143 305 17 28
50 73 74 102 38 45 54 56 136 86 158 60 179 63 259 40z m-105 -234 c37 -13
150 -86 186 -118 49 -44 68 -94 68 -176 0 -116 -42 -250 -111 -350 -52 -76
-51 -51 3 58 81 163 75 250 -22 311 -20 13 -59 44 -86 68 -127 115 -214 90
-343 -98 -23 -35 -5 71 22 123 39 78 131 163 196 181 47 14 54 14 87 1z m-60
-217 c31 -17 91 -65 159 -128 47 -44 45 -82 -8 -195 -24 -48 -45 -88 -48 -89
-3 0 -4 18 -2 41 5 52 -13 141 -41 199 -43 89 -120 100 -219 34 -28 -19 -52
-33 -54 -31 -7 7 79 127 112 156 39 35 56 37 101 13z m5 -199 c18 -32 27 -66
28 -103 4 -97 5 -96 -35 -61 -40 34 -68 38 -122 16 -19 -8 -37 -15 -38 -15 -3
0 -16 62 -21 98 -5 38 87 110 142 112 15 0 28 -14 46 -47z m-63 -235 c13 -23
13 -28 -2 -42 -21 -21 -33 -15 -40 21 -10 55 16 69 42 21z m610 -377 c-7 -62
-25 -128 -41 -148 -5 -6 -42 -15 -83 -18 -68 -7 -78 -5 -117 18 -39 22 -123
105 -116 113 2 1 28 -3 58 -10 86 -20 123 -11 214 50 44 30 83 54 87 54 3 0 2
-26 -2 -59z"/>
</g>
</svg>
